<svg xmlns="http://www.w3.org/2000/svg" viewBox="0 0 24 24" fill="currentColor">
  <!-- 抖音 Logo 简化版 -->
  <path d="M16.6 5.82C15.56 4.94 14.83 3.71 14.58 2.32C14.52 1.97 14.49 1.61 14.49 1.24H10.51V15.57C10.51 17.28 9.13 18.66 7.42 18.66C5.71 18.66 4.33 17.28 4.33 15.57C4.33 13.86 5.71 12.48 7.42 12.48C7.74 12.48 8.05 12.53 8.35 12.62V8.56C8.04 8.52 7.73 8.49 7.42 8.49C3.59 8.49 0.49 11.59 0.49 15.42C0.49 19.25 3.59 22.35 7.42 22.35C11.25 22.35 14.35 19.25 14.35 15.42V8.72C15.83 9.82 17.66 10.47 19.64 10.47V6.49C18.46 6.49 17.4 6.14 16.6 5.82Z"/>
</svg>
